<svg xmlns="http://www.w3.org/2000/svg" viewBox="0 0 877 877" fill="#1A4A3E">
  <g transform="translate(17.0, 877.0) scale(0.1, -0.1)">
    <path d="M3995 8559 c-188 -7 -271 -22 -390 -68 -256 -98 -438 -284 -568 -576
-36 -81 -262 -601 -594 -1365 -101 -234 -220 -506 -263 -605 -677 -1558 -799
-1855 -875 -2137 -21 -77 -22 -89 -8 -107 21 -30 32 -27 114 32 225 162 420
256 680 331 205 58 274 69 731 121 371 43 603 148 817 370 143 149 222 293
472 863 68 155 127 282 130 282 3 0 10 -15 16 -32 6 -18 95 -258 197 -533 271
-726 317 -849 396 -1065 39 -107 86 -235 105 -285 40 -106 219 -591 382 -1035
593 -1619 724 -1954 827 -2108 150 -225 416 -393 683 -432 129 -19 861 -8 938
13 280 80 439 283 439 562 0 181 30 93 -440 1272 -836 2098 -1144 2872 -1269
3193 -20 52 -84 214 -142 360 -58 146 -147 373 -198 505 -716 1849 -736 1893
-954 2118 -272 280 -544 353 -1226 326z"/>
    <path d="M4635 3744 c-356 -105 -761 -152 -1485 -174 -416 -12 -588 -24 -740
-51 -802 -139 -1415 -641 -1771 -1451 -77 -174 -373 -1011 -409 -1153 -80
-320 59 -598 345 -688 112 -35 994 -34 1130 2 320 84 521 274 671 638 122 297
248 499 413 664 182 181 321 260 616 349 517 156 718 380 1155 1285 111 229
226 495 236 542 13 68 -27 77 -161 37z"/>
  </g>
</svg>
